<?xml version="1.0" encoding="utf-8"?>
<!-- Generator: Adobe Illustrator 25.4.1, SVG Export Plug-In . SVG Version: 6.00 Build 0)  -->
<svg version="1.1" id="Layer_1" xmlns="http://www.w3.org/2000/svg" xmlns:xlink="http://www.w3.org/1999/xlink" x="0px" y="0px"
	 viewBox="0 0 300 300" style="enable-background:new 0 0 300 300;" xml:space="preserve">
<style type="text/css">
	.st0{fill:#FFFFFF;}
	.st1{fill:#184784;}
	.st2{fill:#FFF7EB;}
	.st3{fill:#4E8ECB;}
</style>
<g id="XMLID_00000111881907601582067250000009602736468497714349_">
	<g id="XMLID_00000054245340502615363280000005369515218092695740_">
		
			<rect id="XMLID_00000024715990302727802000000013405509690136553393_" x="8.4" y="8.4" class="st0" width="283.2" height="283.2"/>
		<path id="XMLID_00000010277847793026275730000005169130505682324105_" class="st1" d="M5.4,294.6h289.1V5.4H5.4V294.6z M11.4,11.4
			h277.2v277.2H11.4V11.4z"/>
		
			<rect id="XMLID_00000133490327093408602350000017436261868149197733_" x="38.7" y="37.6" class="st2" width="224.8" height="224.8"/>
		<path id="XMLID_00000155125836028777628200000015131292805447783346_" class="st1" d="M205.6,97.2h-0.3l-12.3,35.5h25.4
			L205.6,97.2z M219,134.5h-26.8l-8.7,24.8h7.2h6.5v1.9h-25.8v-1.9h9.4l29.4-82.4h1.4l30.4,82.4h10.4v1.9h-36.7v-1.9H228L219,134.5z
			"/>
		<g id="XMLID_00000085245643651171226520000010366612692419605923_">
			<path id="XMLID_00000047031342386435753840000012595585045980138916_" class="st3" d="M144.5,80.7H134v-1.9h63.4l1.4,19.9h-1.9
				c0-13.5-9-18-21.7-18h-18.7v37.7h8.9c12.4,0,13.6-7.4,13.6-15h1.9v31.1h-1.9c0-8.9-1.2-14.3-13.7-14.3h-8.8v39.1h16.3
				c19.3,0,28.6-2.2,28.6-22.1h1.9v24H134v-1.9h10.5V80.7z"/>
			<path id="XMLID_00000005974936809375487000000000323321632738005406_" class="st1" d="M94.1,159.2h10.2
				c10.7,0,30.6-3.8,30.6-39.2c0-20-5.8-39.3-35-39.3h-5.8V159.2z M82,80.7H70.7v-1.9h37.2c31.6,0,40.6,25.6,40.6,41.2
				c0,25.5-16.1,41-40.5,41H70.7v-1.6H82V80.7z"/>
		</g>
		<polygon id="XMLID_00000119079138597478057960000002470647157043513767_" class="st3" points="57.7,80.7 46.3,80.7 46.3,78.8 
			81.9,78.8 81.9,80.7 70.5,80.7 70.5,159.2 81.9,159.2 81.9,161 46.3,161 46.3,159.2 57.7,159.2 		"/>
		<path id="XMLID_00000088105653737367285710000010358675835944364176_" class="st1" d="M18.5,281.5h263v-263h-263V281.5z
			 M283.4,283.5H16.5v-267h266.9V283.5z"/>
		<rect id="XMLID_00000000928897239774569820000010443844888254253708_" x="57.6" y="57" class="st1" width="2.5" height="11.5"/>
		<polyline id="XMLID_00000181766214832925425860000002086536199988451204_" class="st1" points="69.5,57 70.8,57 74.6,63.7 
			74.6,57 76.9,57 76.9,68.5 74.7,68.5 70.5,61.3 70.5,68.5 68.2,68.5 68.2,57 69.2,57 		"/>
		<polygon id="XMLID_00000052101651836613446070000007874055538190569115_" class="st1" points="89.1,68.5 86.6,68.5 86.6,59.4 
			83.7,59.4 83.7,57 92,57 92,59.4 89.1,59.4 		"/>
		<polygon id="XMLID_00000008842065423317968910000001917860820987766971_" class="st1" points="106.9,68.5 99,68.5 99,57 106.7,57 
			106.7,59.4 101.6,59.4 101.6,61.4 105.7,61.4 105.7,63.7 101.6,63.7 101.6,66.1 106.9,66.1 		"/>
		<g id="XMLID_00000066513533772908569760000001431086585445867191_">
			<path id="XMLID_00000106848982016167358530000016642202949214916782_" class="st1" d="M116.6,61.8h1.8c0.7,0,1-0.1,1.3-0.4
				c0.2-0.2,0.3-0.5,0.3-0.9c0-0.4-0.1-0.7-0.4-0.9c-0.3-0.2-0.5-0.2-1.1-0.2h-1.9V61.8z M123,68.5h-2.7l-1.9-4.4h-1.8v4.4h-2.5V57
				h4.5c0.8,0,1.8,0.1,2.7,0.8c0.8,0.6,1.3,1.7,1.3,2.7c0,1.3-0.7,2.4-1.7,3L123,68.5z"/>
		</g>
		<polyline id="XMLID_00000073685005160410260600000010103523732122216350_" class="st1" points="131.4,57 132.7,57 136.5,63.7 
			136.5,57 138.9,57 138.9,68.5 136.6,68.5 132.4,61.3 132.4,68.5 130.1,68.5 130.1,57 131.2,57 		"/>
		<path id="XMLID_00000178184396488568817370000009331573810060039598_" class="st1" d="M149.5,63.3h1.4l-0.7-2.2L149.5,63.3z
			 M155.2,68.5h-2.6l-1-3h-2.9l-0.9,3h-2.4l3.7-11.5h2.4L155.2,68.5z"/>
		<polygon id="XMLID_00000121989639109390623040000002468083567397085608_" class="st1" points="166.2,68.5 163.6,68.5 163.6,59.4 
			160.7,59.4 160.7,57 169.1,57 169.1,59.4 166.2,59.4 		"/>
		<rect id="XMLID_00000032645608466752148750000008941533859695751614_" x="176.1" y="57" class="st1" width="2.5" height="11.5"/>
		<g id="XMLID_00000178192851896236529100000017916600423527186848_">
			<path id="XMLID_00000145774845454167356770000001642423164017797010_" class="st1" d="M190.9,59.2c-2.1,0-2.3,2.8-2.3,3.7
				c0,1.3,0.5,3.5,2.2,3.5c2.2,0,2.2-3.3,2.2-3.6c0-1-0.2-1.9-0.5-2.5C192.2,59.6,191.6,59.2,190.9,59.2 M190.9,68.7
				c-3.3,0-4.8-2.9-4.8-5.8c0-2.9,1.5-6,4.8-6c3.3,0,4.8,3,4.8,5.8C195.7,65.6,194.1,68.7,190.9,68.7"/>
		</g>
		<polyline id="XMLID_00000011736932649824651140000004258297961281404331_" class="st1" points="204.5,57 205.8,57 209.7,63.7 
			209.7,57 212,57 212,68.5 209.8,68.5 205.6,61.3 205.6,68.5 203.2,68.5 203.2,57 204.3,57 		"/>
		<path id="XMLID_00000157991004102240139490000011509471435282577338_" class="st1" d="M222.6,63.3h1.4l-0.7-2.2L222.6,63.3z
			 M228.4,68.5h-2.6l-1-3h-2.9l-0.9,3h-2.4l3.7-11.5h2.4L228.4,68.5z"/>
		<polygon id="XMLID_00000011741316789655276230000007033135251260299924_" class="st1" points="242.3,68.5 235,68.5 235,57 
			237.5,57 237.5,66.1 242.3,66.1 		"/>
		
			<rect id="XMLID_00000132079279450676393940000012511680680838683021_" x="57.7" y="171.2" class="st1" width="2.5" height="11.5"/>
		<polyline id="XMLID_00000168087844684609561060000003098159514053728419_" class="st1" points="70.1,171.2 71.4,171.2 75.3,177.8 
			75.3,171.2 77.6,171.2 77.6,182.6 75.3,182.6 71.1,175.4 71.1,182.6 68.8,182.6 68.8,171.2 69.9,171.2 		"/>
		<g id="XMLID_00000103237315831306235610000010231122188713337757_">
			<path id="XMLID_00000140729784470912088690000009578945474002662047_" class="st1" d="M90.1,182.8c-2.4,0-4-1.1-4.7-3.3l-0.2-0.7
				l2.4-0.5l0.2,0.6c0.4,1.3,1.5,1.6,2.4,1.6c0.6,0,1.1-0.1,1.4-0.4c0.2-0.2,0.4-0.5,0.4-0.8c0-0.4-0.2-0.8-1.3-1.1l-1.7-0.4
				c-0.6-0.2-1.4-0.3-2.1-1c-0.7-0.6-1-1.4-1-2.4c0-2.1,1.6-3.4,4.1-3.4c2.1,0,3.6,1.1,4.2,2.9l0.2,0.6l-2.4,0.7l-0.1-0.7
				c-0.2-0.8-1.1-1.3-1.9-1.3c-0.5,0-1.6,0.2-1.6,1c0,0.6,0.3,0.8,1.4,1l1.5,0.4c0.7,0.2,1.5,0.4,2.1,0.9c0.8,0.6,1.2,1.5,1.2,2.5
				c0,1.1-0.5,2.1-1.4,2.8C92.4,182.5,91.4,182.8,90.1,182.8"/>
		</g>
		<polygon id="XMLID_00000125576331566260136710000014847705816587491509_" class="st1" points="106.8,182.6 104.3,182.6 
			104.3,173.5 101.4,173.5 101.4,171.2 109.7,171.2 109.7,173.5 106.8,173.5 		"/>
		
			<rect id="XMLID_00000054959372317939430450000013344304098349477768_" x="117.3" y="171.2" class="st1" width="2.5" height="11.5"/>
		<path id="XMLID_00000119096133849453158030000009903447023860088204_" class="st1" d="M131.5,181.4L131.5,181.4v-9V181.4z
			 M132.7,182.6h-2.5v-9.1h-2.9v-2.4h8.3v2.4h-2.9V182.6z"/>
		<g id="XMLID_00000065793442290493527440000009429031266414037678_">
			<path id="XMLID_00000158712425316840732110000010302335111076673927_" class="st1" d="M147.2,182.8c-1.4,0-2.5-0.4-3.2-1.2
				c-0.9-1-1-2.2-1-3.3v-7.1h2.5v7.1c0,0.4,0,1.2,0.3,1.6c0.2,0.3,0.8,0.5,1.5,0.5c0.5,0,1-0.1,1.3-0.5c0.3-0.4,0.3-1,0.3-1.6v-7.1
				h2.3v7.1c0,1.1-0.1,2.2-0.9,3.2C149.7,182.3,148.6,182.8,147.2,182.8"/>
		</g>
		<polygon id="XMLID_00000081635027298545368180000015379696728297947311_" class="st1" points="164.3,182.6 161.8,182.6 
			161.8,173.5 158.9,173.5 158.9,171.2 167.2,171.2 167.2,173.5 164.3,173.5 		"/>
		<polygon id="XMLID_00000016060354964431065210000010504251152099788214_" class="st1" points="182.6,182.6 174.7,182.6 
			174.7,171.2 182.4,171.2 182.4,173.5 177.2,173.5 177.2,175.5 181.3,175.5 181.3,177.8 177.2,177.8 177.2,180.3 182.6,180.3 		"/>
		<polygon id="XMLID_00000140714810106042161780000005958471433595865023_" class="st1" points="204.6,182.6 202,182.6 202,171.2 
			209.5,171.2 209.5,173.5 204.6,173.5 204.6,175.5 208.7,175.5 208.7,177.8 204.6,177.8 		"/>
		<g id="XMLID_00000029026649172253451090000008784305015143207571_">
			<path id="XMLID_00000077312408823666241540000001737323236945121415_" class="st1" d="M220.8,173.3c-2.1,0-2.3,2.8-2.3,3.7
				c0,1.3,0.5,3.5,2.2,3.5c2.2,0,2.2-3.3,2.2-3.6c0-1-0.2-1.9-0.5-2.5C222.1,173.7,221.4,173.3,220.8,173.3 M220.7,182.8
				c-3.3,0-4.8-2.9-4.8-5.8c0-2.9,1.5-6,4.8-6c3.3,0,4.8,3,4.8,5.8C225.6,179.8,223.9,182.8,220.7,182.8"/>
			<path id="XMLID_00000099628078676669626420000004173972410784034977_" class="st1" d="M236.1,175.9h1.8c0.7,0,1-0.1,1.3-0.4
				c0.2-0.2,0.3-0.5,0.3-0.9c0-0.4-0.1-0.7-0.4-0.9c-0.3-0.2-0.5-0.2-1.1-0.2h-1.9V175.9z M242.5,182.6h-2.7l-1.9-4.4h-1.8v4.4h-2.5
				v-11.5h4.5c0.8,0,1.8,0.1,2.7,0.8c0.8,0.6,1.3,1.7,1.3,2.7c0,1.3-0.7,2.4-1.7,3L242.5,182.6z"/>
			<path id="XMLID_00000052102054851911344360000011563464405617106314_" class="st1" d="M60.1,200.4h1.2c1.2,0,1.8-0.3,2.3-1
				c0.4-0.6,0.6-1.5,0.6-2.4c0-1-0.3-1.9-0.8-2.6c-0.5-0.7-1.2-0.8-2.1-0.8h-1.2V200.4z M61.8,202.7h-4.3v-11.5h3.9
				c1.3,0,2.8,0.2,4,1.7c0.9,1.1,1.4,2.5,1.4,4c0,1.5-0.4,2.8-1.2,3.9C64.7,202.1,63.5,202.7,61.8,202.7"/>
		</g>
		<polygon id="XMLID_00000168832716150112362350000007603412882994120368_" class="st1" points="80.9,202.7 73.1,202.7 73.1,191.3 
			80.8,191.3 80.8,193.6 75.6,193.6 75.6,195.6 79.7,195.6 79.7,197.9 75.6,197.9 75.6,200.4 80.9,200.4 		"/>
		<polygon id="XMLID_00000119826533768356344270000015021011752127473556_" class="st1" points="98.2,202.7 95.6,202.7 95.6,196.6 
			93.4,202.7 91.7,202.7 89.4,196.5 89.4,202.7 87,202.7 87,191.3 90,191.3 92.6,198.3 95.2,191.3 98.2,191.3 		"/>
		<g id="XMLID_00000093869184042459883980000013798744379568123823_">
			<path id="XMLID_00000110458153964481237370000015779397240464555171_" class="st1" d="M109.3,193.4c-2.1,0-2.3,2.8-2.3,3.7
				c0,1.3,0.5,3.5,2.2,3.5c2.2,0,2.2-3.3,2.2-3.6c0-1-0.2-1.9-0.5-2.5C110.5,193.8,109.9,193.4,109.3,193.4 M109.2,202.9
				c-3.3,0-4.8-2.9-4.8-5.8c0-2.9,1.5-6,4.8-6c3.3,0,4.8,3,4.8,5.8C114,199.9,112.4,202.9,109.2,202.9"/>
			<path id="XMLID_00000029033825737851663970000011169619730852418205_" class="st1" d="M124.7,202.9c-3.3,0-4.8-3.1-4.8-6
				c0-2.9,1.5-5.8,4.9-5.8c2.2,0,3.8,1.4,4.3,3.7l0.1,0.6l-2.4,0.4l-0.2-0.6c-0.4-1.4-0.9-1.9-1.9-1.9c-2,0-2.2,2.7-2.2,3.6
				c0,0.9,0.2,1.7,0.4,2.3c0.2,0.4,0.7,1.3,1.7,1.3c0.4,0,1.5,0,2-2l0.1-0.6l2.4,0.5l-0.2,0.6C128.5,201.5,126.9,202.9,124.7,202.9"
				/>
			<path id="XMLID_00000066498298436649952490000011005160042688137909_" class="st1" d="M137.9,196h1.8c0.7,0,1-0.1,1.3-0.4
				c0.2-0.2,0.3-0.5,0.3-0.9c0-0.4-0.1-0.7-0.4-0.9c-0.3-0.2-0.5-0.2-1.1-0.2h-1.9V196z M144.3,202.7h-2.7l-1.9-4.4h-1.8v4.4h-2.5
				v-11.5h4.5c0.8,0,1.8,0.1,2.7,0.8c0.8,0.6,1.3,1.7,1.3,2.7c0,1.3-0.7,2.4-1.7,3L144.3,202.7z"/>
		</g>
		<path id="XMLID_00000103235456303719453500000014086754205194172299_" class="st1" d="M153.1,197.5h1.4l-0.7-2.2L153.1,197.5z
			 M158.9,202.7h-2.6l-1-3h-2.9l-0.9,3h-2.4l3.7-11.5h2.4L158.9,202.7z"/>
		<g id="XMLID_00000007426594404705551750000017989823566999930559_">
			<path id="XMLID_00000078029382069182011430000017156244052126266255_" class="st1" d="M168.6,202.9c-3.3,0-4.8-3.1-4.8-6
				c0-2.9,1.5-5.8,4.9-5.8c2.2,0,3.8,1.4,4.3,3.7l0.1,0.6l-2.4,0.4l-0.2-0.6c-0.4-1.4-0.9-1.9-1.9-1.9c-2,0-2.2,2.7-2.2,3.6
				c0,0.9,0.2,1.7,0.4,2.3c0.2,0.4,0.7,1.3,1.7,1.3c0.4,0,1.5,0,2-2l0.1-0.6l2.4,0.5l-0.2,0.6C172.4,201.5,170.8,202.9,168.6,202.9"
				/>
		</g>
		<polygon id="XMLID_00000143619110954093073460000018203849574734541958_" class="st1" points="184.2,202.7 181.7,202.7 181.7,198 
			177.8,191.3 180.7,191.3 183.1,195.3 185.5,191.3 188.1,191.3 184.2,198 		"/>
		<path id="XMLID_00000141427472127808669060000014745197286031310213_" class="st1" d="M206.3,197.5h1.4l-0.7-2.2L206.3,197.5z
			 M212,202.7h-2.6l-1-3h-2.9l-0.9,3h-2.4l3.7-11.5h2.4L212,202.7z"/>
		<polyline id="XMLID_00000025420806205290262680000010281904203138640566_" class="st1" points="218.9,191.3 220.2,191.3 
			224,197.9 224,191.3 226.3,191.3 226.3,202.7 224.1,202.7 219.9,195.5 219.9,202.7 217.6,202.7 217.6,191.3 218.6,191.3 		"/>
		<g id="XMLID_00000144332056405255394680000004343894926943626396_">
			<path id="XMLID_00000050659258201898297110000013528394205642962834_" class="st1" d="M235.7,200.4h1.2c1.2,0,1.8-0.3,2.3-1
				c0.4-0.6,0.6-1.5,0.6-2.4c0-1-0.3-1.9-0.8-2.6c-0.5-0.7-1.2-0.8-2.1-0.8h-1.2V200.4z M237.4,202.7h-4.3v-11.5h3.9
				c1.3,0,2.8,0.2,4,1.7c0.9,1.1,1.4,2.5,1.4,4c0,1.5-0.4,2.8-1.2,3.9C240.3,202.1,239,202.7,237.4,202.7"/>
		</g>
		<polygon id="XMLID_00000036967654577648740220000015073064241419754113_" class="st1" points="65.6,222.8 57.7,222.8 57.7,211.4 
			65.4,211.4 65.4,213.7 60.3,213.7 60.3,215.7 64.4,215.7 64.4,218 60.3,218 60.3,220.5 65.6,220.5 		"/>
		<polygon id="XMLID_00000114071792572613993100000012033315879209932676_" class="st1" points="86.9,222.8 79.7,222.8 79.7,211.4 
			82.2,211.4 82.2,220.4 86.9,220.4 		"/>
		<polygon id="XMLID_00000033332340591922152890000006362157109254014632_" class="st1" points="108.6,222.8 100.7,222.8 
			100.7,211.4 108.4,211.4 108.4,213.7 103.3,213.7 103.3,215.7 107.4,215.7 107.4,218 103.3,218 103.3,220.5 108.6,220.5 		"/>
		<g id="XMLID_00000129195516490281645570000015652464095643647909_">
			<path id="XMLID_00000008841786404839848640000018429973818976134818_" class="st1" d="M126.8,223c-3.3,0-4.8-3.1-4.8-6
				c0-2.9,1.5-5.8,4.9-5.8c2.2,0,3.8,1.4,4.3,3.7l0.1,0.6L129,216l-0.2-0.6c-0.4-1.4-0.9-1.9-1.9-1.9c-2,0-2.2,2.7-2.2,3.6
				c0,0.9,0.2,1.7,0.4,2.3c0.2,0.4,0.7,1.3,1.7,1.3c0.6,0,1.6-0.2,2-2l0.1-0.6l2.4,0.5l-0.2,0.6C130.6,221.6,129.1,223,126.8,223"/>
		</g>
		<path id="XMLID_00000021805087004446543130000015425269518902494643_" class="st1" d="M148.6,221.6L148.6,221.6v-9V221.6z
			 M149.9,222.8h-2.5v-9.1h-2.9v-2.4h8.3v2.4h-2.9V222.8z"/>
		<g id="XMLID_00000044874390298605171650000011047091635444355725_">
			<path id="XMLID_00000031896787236249149720000003883110745900474775_" class="st1" d="M170.9,213.5c-2.1,0-2.3,2.8-2.3,3.7
				c0,1.3,0.5,3.5,2.2,3.5c2.2,0,2.2-3.3,2.2-3.6c0-1-0.2-1.9-0.5-2.5C172.1,213.9,171.5,213.5,170.9,213.5 M170.8,223
				c-3.3,0-4.8-2.9-4.8-5.8c0-2.9,1.5-6,4.8-6c3.3,0,4.8,3,4.8,5.8C175.6,220,174,223,170.8,223"/>
			<path id="XMLID_00000078758973806860237150000011351273983257239727_" class="st1" d="M192.5,216.1h1.8c0.7,0,1-0.1,1.3-0.4
				c0.2-0.2,0.3-0.5,0.3-0.9c0-0.4-0.1-0.7-0.4-0.9c-0.3-0.2-0.5-0.2-1.1-0.2h-1.9V216.1z M198.9,222.8h-2.7l-1.9-4.4h-1.8v4.4H190
				v-11.5h4.5c0.8,0,1.8,0.1,2.7,0.8c0.8,0.6,1.3,1.7,1.3,2.7c0,1.3-0.7,2.4-1.7,3L198.9,222.8z"/>
		</g>
		<path id="XMLID_00000163074987080550693790000011868094438839481525_" class="st1" d="M215.6,217.6h1.4l-0.7-2.2L215.6,217.6z
			 M221.4,222.8h-2.6l-1-3h-2.9l-0.9,3h-2.4l3.7-11.5h2.4L221.4,222.8z"/>
		<polygon id="XMLID_00000179640626461936568310000016461980267421154690_" class="st1" points="242.1,222.8 234.8,222.8 
			234.8,211.4 237.4,211.4 237.4,220.4 242.1,220.4 		"/>
		<path id="XMLID_00000090266806683786363880000000059252673894957727_" class="st1" d="M61.1,237.8h1.4l-0.7-2.2L61.1,237.8z
			 M66.8,243h-2.6l-1-3h-2.9l-0.9,3H57l3.7-11.5h2.4L66.8,243z"/>
		<g id="XMLID_00000067219108999841241610000011743981968427415704_">
			<path id="XMLID_00000003805390297112445970000016754967328799584915_" class="st1" d="M82,243.1c-2.4,0-4-1.1-4.7-3.3l-0.2-0.7
				l2.4-0.5l0.2,0.6c0.4,1.4,1.7,1.6,2.4,1.6c0.6,0,1.1-0.1,1.4-0.4c0.2-0.2,0.4-0.5,0.4-0.8c0-0.4-0.2-0.8-1.3-1.1l-1.7-0.4
				c-0.7-0.2-1.4-0.3-2.1-1c-0.7-0.6-1-1.4-1-2.4c0-2.1,1.6-3.4,4.1-3.4c2.1,0,3.6,1.1,4.2,2.9l0.2,0.6l-2.4,0.7l-0.1-0.7
				c-0.2-0.8-1.1-1.3-1.9-1.3c-0.5,0-1.6,0.2-1.6,1c0,0.6,0.3,0.8,1.4,1l1.5,0.4c0.7,0.2,1.5,0.4,2.1,0.9c0.8,0.6,1.2,1.5,1.2,2.5
				c0,1.1-0.5,2.1-1.4,2.8C84.3,242.8,83.3,243.1,82,243.1"/>
			<path id="XMLID_00000147926255047958810580000006853386350984332966_" class="st1" d="M102.5,243.1c-2.4,0-4-1.1-4.7-3.3
				l-0.2-0.7l2.4-0.5l0.2,0.6c0.4,1.3,1.5,1.6,2.4,1.6c0.6,0,1.2-0.1,1.4-0.4c0.2-0.2,0.4-0.5,0.4-0.8c0-0.4-0.2-0.8-1.3-1.1
				l-1.7-0.4c-0.7-0.2-1.4-0.3-2.1-1c-0.7-0.6-1-1.4-1-2.4c0-2.1,1.6-3.4,4.1-3.4c2,0,3.6,1.1,4.2,2.9l0.2,0.6l-2.4,0.7l-0.1-0.7
				c-0.2-0.8-1.1-1.3-1.9-1.3c-0.5,0-1.6,0.2-1.6,1c0,0.6,0.3,0.8,1.4,1l1.5,0.4c0.7,0.2,1.5,0.4,2.1,0.9c0.8,0.6,1.2,1.5,1.2,2.5
				c0,1.1-0.5,2.1-1.4,2.8C104.8,242.8,103.8,243.1,102.5,243.1"/>
		</g>
		
			<rect id="XMLID_00000054259033576611494160000003025714631199617935_" x="118.9" y="231.5" class="st1" width="2.5" height="11.5"/>
		<g id="XMLID_00000000939670206231028740000008734390653899078039_">
			<path id="XMLID_00000109711241269282581560000016404490571589810574_" class="st1" d="M138.1,243.1c-2.4,0-4-1.1-4.7-3.3
				l-0.2-0.7l2.4-0.5l0.2,0.6c0.4,1.3,1.5,1.6,2.4,1.6c0.6,0,1.1-0.1,1.4-0.4c0.2-0.2,0.4-0.5,0.4-0.8c0-0.4-0.2-0.8-1.3-1.1
				l-1.7-0.4c-0.7-0.2-1.4-0.3-2.1-1c-0.7-0.6-1-1.4-1-2.4c0-2.1,1.6-3.4,4.1-3.4c2.1,0,3.6,1.1,4.2,2.9l0.2,0.6l-2.4,0.7l-0.1-0.7
				c-0.2-0.8-1.1-1.3-1.9-1.3c-0.5,0-1.6,0.2-1.6,1c0,0.6,0.3,0.8,1.4,1l1.5,0.4c0.7,0.2,1.5,0.4,2.1,0.9c0.8,0.6,1.2,1.5,1.2,2.5
				c0,1.1-0.5,2.1-1.4,2.8C140.4,242.8,139.3,243.1,138.1,243.1"/>
		</g>
		<polygon id="XMLID_00000145046078575091413530000014728008265564097698_" class="st1" points="158.8,243 156.2,243 156.2,233.9 
			153.3,233.9 153.3,231.5 161.7,231.5 161.7,233.9 158.8,233.9 		"/>
		<path id="XMLID_00000008109458494326878360000006225955230864119452_" class="st1" d="M175.8,237.8h1.4l-0.7-2.2L175.8,237.8z
			 M181.6,243H179l-1-3h-2.9l-0.9,3h-2.4l3.7-11.5h2.4L181.6,243z"/>
		<polyline id="XMLID_00000070089993725221162550000012477940109164153509_" class="st1" points="193.9,231.5 195.2,231.5 
			199.1,238.1 199.1,231.5 201.4,231.5 201.4,243 199.2,243 195,235.8 195,243 192.6,243 192.6,231.5 193.7,231.5 		"/>
		<g id="XMLID_00000132085080184362742230000009893572610744394427_">
			<path id="XMLID_00000011715181892359428810000002786185410767744135_" class="st1" d="M217.9,243.1c-3.3,0-4.8-3.1-4.8-6
				c0-2.9,1.5-5.8,4.9-5.8c2.2,0,3.8,1.4,4.3,3.7l0.1,0.6l-2.4,0.4l-0.2-0.6c-0.4-1.4-0.9-1.9-1.9-1.9c-2,0-2.2,2.7-2.2,3.6
				c0,0.9,0.2,1.7,0.4,2.3c0.2,0.4,0.7,1.3,1.7,1.3c0.4,0,1.5,0,2-2l0.1-0.6l2.4,0.5l-0.2,0.6C221.7,241.8,220.1,243.1,217.9,243.1"
				/>
		</g>
		<polygon id="XMLID_00000047053913635631724440000002414213808532640668_" class="st1" points="242.1,243 234.2,243 234.2,231.5 
			241.9,231.5 241.9,233.9 236.7,233.9 236.7,235.9 240.8,235.9 240.8,238.1 236.7,238.1 236.7,240.6 242.1,240.6 		"/>
	</g>
</g>
</svg>
